<svg aria-hidden="true" style="position: absolute; width: 0; height: 0; overflow: hidden;" version="1.1" xmlns="http://www.w3.org/2000/svg" xmlns:xlink="http://www.w3.org/1999/xlink">
<defs>
<symbol id="icon-eko-logo" viewBox="0 0 29 32">
<path fill="#fff" style="fill: var(--color1, #fff)" d="M25.4 8.206c-0.185-0.234-0.43-0.547-0.625-0.774-0.67-0.726-0.67-0.726-1.038-1.064-0.711-0.616-0.711-0.616-1.090-0.895-0.758-0.527-0.758-0.527-1.156-0.76-0.816-0.449-0.816-0.449-1.245-0.643-0.873-0.366-0.889-0.373-1.364-0.528l-0.538-0.162c2.656 0.742 5.303 2.483 7.056 4.825z"></path>
<path fill="#39b54a" style="fill: var(--color2, #39b54a)" d="M27.943 14.505c-0.052-0.323-0.114-0.754-0.179-1.074-0.277-1.13-0.3-1.222-0.583-1.989-0.43-1.026-0.455-1.088-0.79-1.703-0.183-0.308-0.428-0.719-0.626-1.019l-0.365-0.513c-1.753-2.341-4.399-4.083-7.056-4.824-0.294-0.073-0.687-0.172-0.984-0.234-1.028-0.171-1.090-0.182-1.727-0.225-1.096-0.034-1.211-0.037-1.979 0.023-1.174 0.144-1.297 0.159-2.11 0.357 4.759-1.202 11.257 1.752 14.564 6.638 1.051 1.552 1.653 3.113 1.836 4.564z"></path>
<path fill="#fff" style="fill: var(--color1, #fff)" d="M27.563 19.672c0.098-0.415 0.23-0.969 0.306-1.389 0.151-1.2 0.178-1.416 0.169-2.56-0.025-0.366-0.053-0.855-0.095-1.219-0.183-1.45-0.785-3.012-1.836-4.564-3.306-4.884-9.805-7.84-14.563-6.637l-0.146 0.038c-1.141 0.349-1.378 0.421-2.431 0.906-1.123 0.604-1.267 0.681-2.085 1.273 0.703-0.524 1.551-0.93 2.539-1.192 5.296-1.405 12.586 1.886 16.284 7.349 1.919 2.836 2.493 5.701 1.86 7.996z"></path>
<path fill="#39b54a" style="fill: var(--color2, #39b54a)" d="M25.349 24.144l0.371-0.516c0.671-1.068 0.83-1.322 1.402-2.641 0.137-0.393 0.323-0.916 0.44-1.315 0.633-2.296 0.059-5.16-1.86-7.997-3.697-5.463-10.988-8.753-16.284-7.348-0.987 0.262-1.836 0.669-2.539 1.192l-0.307 0.236c-1.283 1.103-1.657 1.473-2.696 2.894l-0.347 0.535c5.699-8.164 21.508 0.146 22.996 9.547 0.475 2.999-0.682 4.69-1.176 5.412z"></path>
<path fill="#fff" style="fill: var(--color1, #fff)" d="M21.659 27.471c0.416-0.275 0.968-0.648 1.366-0.949 0.784-0.674 1.462-1.256 2.325-2.379 5.474-8.157-7.551-19.858-16.986-18.044-3.134 0.602-4.325 2.342-4.833 3.084-0.659 1.17-0.713 1.266-1.054 2.107-0.413 1.181-0.488 1.395-0.719 2.545 2.029-8.801 15.706-5.776 21.027 2.64 2.116 3.347 3.091 8.236-1.125 10.995z"></path>
<path fill="#39b54a" style="fill: var(--color2, #39b54a)" d="M16.609 29.258c0.48-0.084 1.118-0.207 1.592-0.32 1.141-0.349 1.378-0.421 2.431-0.906 0.309-0.166 0.725-0.38 1.026-0.56 7.323-4.971-0.31-16.626-9.897-18.624-3.949-0.823-8.937-0.009-10.005 4.988l-0.027 0.159c-0.151 1.2-0.178 1.416-0.169 2.56 0.080 1.188 0.091 1.341 0.273 2.293l0.071 0.323c-0.801-3.39 0.689-6.309 4.112-7.218 4.579-1.215 10.884 1.631 14.081 6.354s2.077 9.539-2.503 10.754c-0.321 0.085-0.651 0.151-0.987 0.197z"></path>
<path fill="#39b54a" style="fill: var(--color2, #39b54a)" d="M14.46 10.578c-1.954-2.888-1.269-5.83 1.53-6.573s6.653 0.997 8.607 3.884 1.269 5.83-1.53 6.573-6.652-0.997-8.607-3.884c0.992-0.56 1.993-1.059 2.979-1.48 1.028 1.519 3.056 2.434 4.528 2.044s1.833-1.939 0.805-3.458-3.056-2.434-4.528-2.044c-1.473 0.39-1.833 1.939-0.805 3.458-0.986 0.421-1.988 0.92-2.979 1.48z"></path>
<path fill="#fff" style="fill: var(--color1, #fff)" d="M11.543 12.421c-2.734-4.040-1.776-8.156 2.14-9.194 1.424-0.378 3.044-0.296 4.66 0.155l0.538 0.162c0.912 0.324 0.912 0.324 1.364 0.528 0.84 0.406 0.84 0.406 1.245 0.643 0.785 0.487 0.785 0.487 1.156 0.76 0.726 0.564 0.74 0.575 1.090 0.895 0.692 0.669 0.704 0.681 1.038 1.064 0.189 0.23 0.444 0.536 0.625 0.774 0.111 0.149 0.22 0.301 0.323 0.454 2.734 4.040 1.776 8.156-2.14 9.194s-9.306-1.395-12.039-5.434c0.944-0.663 1.925-1.283 2.917-1.843 1.954 2.888 5.808 4.627 8.607 3.884s3.484-3.685 1.53-6.573-5.808-4.627-8.607-3.884-3.484 3.685-1.53 6.573c-0.991 0.56-1.972 1.18-2.916 1.843z"></path>
<path fill="#39b54a" style="fill: var(--color2, #39b54a)" d="M25.765 8.719c0.192 0.303 0.447 0.708 0.626 1.019 0.495 0.966 0.535 1.045 0.79 1.703 0.366 1.070 0.404 1.182 0.583 1.989 0.056 0.322 0.137 0.75 0.179 1.074 0.396 3.143-1.18 5.763-4.441 6.628-4.766 1.264-11.328-1.697-14.655-6.614 0.845-0.73 1.753-1.435 2.697-2.098 2.734 4.040 8.124 6.472 12.040 5.434s4.874-5.155 2.14-9.194c-0.104-0.154-0.212-0.305-0.323-0.454l0.364 0.513z"></path>
<path fill="#39b54a" style="fill: var(--color2, #39b54a)" d="M8.846 14.519c-3.328-4.917-2.162-9.928 2.605-11.192 0.030-0.008 0.061-0.016 0.092-0.024 1.223-0.263 1.296-0.278 2.11-0.357 1.156-0.061 1.225-0.065 1.979-0.023 1.068 0.101 1.11 0.106 1.727 0.225 0.296 0.068 0.691 0.155 0.984 0.234-1.616-0.451-3.235-0.533-4.66-0.155-3.916 1.038-4.874 5.155-2.14 9.194-0.945 0.663-1.853 1.369-2.698 2.098z"></path>
<path fill="#fff" style="fill: var(--color1, #fff)" d="M28.038 15.724c-0.006 1.171-0.008 1.415-0.169 2.56-0.085 0.418-0.198 0.976-0.306 1.389-0.587 2.126-2.208 3.764-4.754 4.439-5.296 1.405-12.586-1.886-16.284-7.349 0.694-0.76 1.476-1.514 2.321-2.244 3.328 4.917 9.889 7.878 14.655 6.614 3.261-0.865 4.838-3.485 4.441-6.628 0.032 0.365 0.088 0.852 0.095 1.219z"></path>
<path fill="#fff" style="fill: var(--color1, #fff)" d="M6.525 16.762c-3.008-4.445-2.711-8.958 0.356-11.243 1.056-0.725 1.191-0.818 2.085-1.273 1.12-0.496 1.323-0.585 2.431-0.906l0.146-0.038c-0.031 0.008-0.061 0.016-0.092 0.024-4.766 1.264-5.932 6.275-2.605 11.192-0.845 0.73-1.627 1.484-2.321 2.244z"></path>
<path fill="#39b54a" style="fill: var(--color2, #39b54a)" d="M27.123 20.987c-0.491 1.116-0.623 1.416-1.402 2.641l-0.371 0.516c-4.878 5.725-15.747 1.979-20.611-5.102 0.061-0.094 0.124-0.189 0.19-0.284 0.453-0.662 0.992-1.331 1.597-1.995 3.697 5.463 10.988 8.753 16.284 7.349 2.546-0.675 4.168-2.313 4.754-4.439-0.127 0.396-0.283 0.93-0.44 1.314z"></path>
<path fill="#39b54a" style="fill: var(--color2, #39b54a)" d="M4.928 18.758c-0.066 0.096-0.128 0.19-0.19 0.284-2.462-3.637-2.772-7.319-1.208-9.857l0.347-0.535c1.019-1.369 1.364-1.769 2.696-2.894l0.307-0.236c-3.067 2.285-3.364 6.799-0.356 11.243-0.606 0.664-1.144 1.333-1.597 1.995z"></path>
<path fill="#fff" style="fill: var(--color1, #fff)" d="M23.025 26.523c-0.402 0.294-0.945 0.68-1.366 0.949-5.338 2.842-13.387-0.025-17.942-6.39 0.201-0.614 0.539-1.297 1.021-2.039 6.102 8.435 16.785 10.025 20.611 5.102-0.526 0.641-1.322 1.609-2.325 2.379z"></path>
<path fill="#fff" style="fill: var(--color1, #fff)" d="M3.717 21.081c-0.8-1.268-2.465-3.907-1.96-7.245 0.257-1.186 0.31-1.433 0.719-2.545 0.538-1.223 0.582-1.323 1.054-2.107-1.564 2.537-1.254 6.22 1.208 9.857-0.482 0.743-0.82 1.426-1.021 2.039z"></path>
<path fill="#39b54a" style="fill: var(--color2, #39b54a)" d="M20.633 28.031c-1.121 0.496-1.323 0.585-2.431 0.906-0.475 0.108-1.111 0.242-1.592 0.32-4.461 0.609-10.12-2.158-13.093-6.551-0.065-0.467-0.001-1.012 0.201-1.626 4.623 6.39 12.672 9.258 17.942 6.39-0.307 0.17-0.709 0.411-1.026 0.56z"></path>
<path fill="#39b54a" style="fill: var(--color2, #39b54a)" d="M3.516 22.706c-0.807-1.193-1.339-2.391-1.61-3.536l-0.071-0.323c-0.197-1.138-0.227-1.314-0.273-2.293 0.006-1.171 0.008-1.415 0.169-2.56l0.027-0.159c-0.22 1.765-0.16 4.007 1.96 7.245-0.202 0.614-0.266 1.159-0.201 1.626z"></path>
<path fill="#fff" style="fill: var(--color1, #fff)" d="M17.439 9.098c-1.028-1.519-0.668-3.068 0.805-3.458s3.5 0.525 4.528 2.044 0.668 3.068-0.805 3.458c-1.473 0.39-3.5-0.525-4.528-2.044 0.981-0.418 1.946-0.759 2.87-1.004-0.924 0.245-1.89 0.585-2.87 1.004z"></path>
</symbol>
</defs>
</svg>
